<?xml version="1.0" encoding="utf-8"?>
<!-- Generator: Adobe Illustrator 27.0.0, SVG Export Plug-In . SVG Version: 6.00 Build 0)  -->
<svg version="1.1" id="Layer_1" xmlns="http://www.w3.org/2000/svg" xmlns:xlink="http://www.w3.org/1999/xlink" x="0px" y="0px"
	 viewBox="0 0 2000 2000" style="enable-background:new 0 0 2000 2000;" xml:space="preserve">
<style type="text/css">
	.st0{opacity:2.000000e-02;}
	.st1{fill:#FFFFFF;}
</style>
<g class="st0">
	<g>
		<g>
			<polygon class="st1" points="1385.7,1393.2 1382.7,1388.2 1570.4,1273.5 1573.5,1278.5 			"/>
		</g>
		<g>
			<g>
				<g>
					<polygon class="st1" points="614,932.2 612.5,931.3 30.3,582.3 30.3,336.9 36.1,336.9 36.1,579 614,925.4 994.5,688.8 
						994.5,462 1189,346.9 1189,112.9 1384.3,-9.8 1385.9,-8.8 1572.8,107.4 1767.3,-9.8 1968.5,111 1968.5,344.7 1962.7,344.7 
						1962.7,114.3 1767.3,-2.9 1572.8,114.3 1571.3,113.3 1384.3,-2.9 1194.8,116.2 1194.8,350.3 1000.4,465.3 1000.4,692 					"/>
				</g>
			</g>
			<g>
				<g>
					<polyline class="st1" points="1194.1,1967.3 807.9,1734.6 809.4,1268 411.7,1029.3 409.9,808.2 999,466.2 1003.1,463.7 
						807.9,345 807.9,111.4 1005.2,-6.4 958.5,-33 946.7,-33 993.6,-6.3 803.5,107.2 802.1,108 802.1,348.3 991.8,463.7 
						401.3,804.7 401.3,1034.3 803.5,1271.3 802.1,1737.9 1182.9,1967.4 					"/>
				</g>
			</g>
			<g>
				<g>
					<polygon class="st1" points="612.6,1622.6 421.5,1511.4 229.1,1621.8 226.2,1616.7 421.5,1504.7 612.5,1615.8 999.4,1381.8 
						1001,1382.7 1375.2,1616.7 1372.1,1621.7 999.4,1388.6 					"/>
				</g>
			</g>
			<g>
				<g>
					<polygon class="st1" points="1758.6,1390.2 1758.6,1155.8 1569,1044.6 1569,799 1370.7,696.6 1373.7,229.4 1375,228.6 
						1572.8,107.5 1770.2,222.1 1776.1,462.9 1574.4,583.2 1571.4,578.2 1770.2,459.6 1764.4,225.5 1572.8,114.3 1379.5,232.7 
						1376.6,693 1574.9,795.4 1574.9,1041.2 1764.4,1152.4 1764.4,1380.1 1964.2,1265.6 1967.1,1270.7 					"/>
				</g>
			</g>
			<g>
				<g>
					<polygon class="st1" points="615.5,1838.6 609.6,1838.6 609.6,1383.5 611.1,1382.7 1185.6,1044.2 1185.6,576.5 611,235.1 
						614,230 1191.4,573.2 1191.4,1047.5 1189.9,1048.4 615.5,1386.9 					"/>
				</g>
			</g>
			<g>
				<g>
					<polygon class="st1" points="1191.4,1735.3 1185.6,1735.3 1185.6,1275.7 996.5,1158.9 996.5,920.2 609.6,687.7 609.6,462.9 
						217.4,235.1 220.3,230 615.5,459.5 615.5,684.3 1002.3,916.9 1002.3,1155.6 1191.4,1272.4 					"/>
				</g>
			</g>
			<g>
				<g>
					<polygon class="st1" points="1570.4,1504.7 1381.3,1392.3 1381.3,1390.7 1380,925.6 996,692.9 999,687.9 1385.8,922.3 
						1385.8,923.9 1387.1,1389 1573.4,1499.7 					"/>
				</g>
			</g>
			<g>
				<g>
					<polygon class="st1" points="1980.1,1529.6 1569,1277.6 1569,1048.2 1384.3,1162.8 1187,1048.4 1189.9,1043.3 1384.2,1156 
						1574.9,1037.7 1574.9,1274.3 1983.2,1524.6 					"/>
				</g>
			</g>
			<g>
				<g>
					<polygon class="st1" points="1000.4,1852.2 994.5,1852.2 994.5,1620.9 804.5,1504.7 807.5,1499.7 1000.4,1617.6 					"/>
				</g>
			</g>
			<g>
				<g>
					<polygon class="st1" points="220.3,694.5 217.4,689.4 421.5,574.4 614,683.5 611.1,688.6 421.5,581.1 					"/>
				</g>
			</g>
			<g>
				<g>
					<polygon class="st1" points="614,463.8 611.1,458.7 996.5,230.9 996.5,-6.4 1002.3,-6.4 1002.3,234.2 					"/>
				</g>
			</g>
			<g>
				<g>
					<polygon class="st1" points="1375.1,464.6 1190.3,351.1 1193.4,346.1 1375.2,457.8 1571.9,345.2 1774.6,458.7 1771.7,463.8 
						1572,352 					"/>
				</g>
			</g>
			<g>
				<g>
					
						<rect x="1453.5" y="226.8" transform="matrix(3.499979e-03 -1 1 3.499979e-03 1337.13 1801.2373)" class="st1" width="237.7" height="5.8"/>
				</g>
			</g>
			<g>
				<g>
					<polygon class="st1" points="1193.4,810.7 1190.3,805.7 1372.1,692.3 1375.2,697.3 					"/>
				</g>
			</g>
			<g>
				<g>
					<polygon class="st1" points="424.4,577.8 418.6,577.8 418.6,355.3 226.1,463.8 223.3,458.7 424.4,345.3 					"/>
				</g>
			</g>
			<g>
				<g>
					<polygon class="st1" points="806.5,1738.7 803.5,1733.7 994.6,1617.6 996.5,1386.9 803.5,1274.3 806.5,1269.3 1002.3,1383.5 
						1000.4,1620.9 					"/>
				</g>
			</g>
			<g>
				<g>
					<polygon class="st1" points="999,1621.7 995.9,1616.7 1185,1499.7 1188.1,1504.7 					"/>
				</g>
			</g>
			<g>
				<g>
					
						<rect x="801.2" y="348.6" transform="matrix(1 -2.799989e-03 2.799989e-03 1 -1.9449 2.2541)" class="st1" width="5.8" height="694.3"/>
				</g>
			</g>
			<g>
				<g>
					<polygon class="st1" points="609.6,1157.1 611.1,928.8 616.9,928.8 615.5,1150.3 805,1039.5 806.5,1040.4 1000.9,1154.7 
						997.9,1159.8 805,1046.3 					"/>
				</g>
			</g>
			<g>
				<g>
					<polygon class="st1" points="217.5,920.8 214.5,915.8 409.1,800.4 412.1,805.4 					"/>
				</g>
			</g>
		</g>
	</g>
</g>
</svg>
